<svg xmlns="http://www.w3.org/2000/svg" width="17" height="17" viewBox="0 0 17 17">
  <defs>
    <style>
      .cls-1 {
        fill: #fff;
        fill-rule: evenodd;
      }
    </style>
  </defs>
  <path id="earth.svg" class="cls-1" d="M1193.5,18h-0.02a8.5,8.5,0,0,0,0,16.993h0.02A8.5,8.5,0,1,0,1193.5,18Zm0.34,5.085a12.709,12.709,0,0,0,2.63-.349,15.191,15.191,0,0,1,.43,3.422h-3.06V23.083Zm0-.68V18.731c0.92,0.253,1.85,1.475,2.44,3.348A11.825,11.825,0,0,1,1193.84,22.4Zm-0.68-3.679V22.4a11.87,11.87,0,0,1-2.46-.328C1191.3,20.19,1192.24,18.963,1193.16,18.723Zm0,4.358v3.073h-3.08a14.643,14.643,0,0,1,.44-3.426A12.517,12.517,0,0,0,1193.16,23.082Zm-3.77,3.073h-3.71a7.828,7.828,0,0,1,1.77-4.617,12.719,12.719,0,0,0,2.41,1.014A16,16,0,0,0,1189.39,26.155Zm0,0.68a16.012,16.012,0,0,0,.47,3.6,12.649,12.649,0,0,0-2.41,1.014,7.831,7.831,0,0,1-1.77-4.616h3.71Zm0.69,0h3.08V29.9a12.414,12.414,0,0,0-2.64.354A14.622,14.622,0,0,1,1190.08,26.835Zm3.08,3.748v3.684c-0.92-.241-1.86-1.468-2.46-3.356A11.849,11.849,0,0,1,1193.16,30.583Zm0.68,3.675V30.583a11.775,11.775,0,0,1,2.44.324C1195.69,32.782,1194.76,34,1193.84,34.258Zm0-4.354V26.835h3.06a15.171,15.171,0,0,1-.43,3.418A12.529,12.529,0,0,0,1193.84,29.9Zm3.75-3.069h3.73a7.828,7.828,0,0,1-1.77,4.615,12.973,12.973,0,0,0-2.42-1.02A16.56,16.56,0,0,0,1197.59,26.835Zm0-.68a15.979,15.979,0,0,0-.47-3.6,12.8,12.8,0,0,0,2.43-1.019,7.829,7.829,0,0,1,1.77,4.619h-3.73Zm1.49-5.138a11.876,11.876,0,0,1-2.14.882,7.665,7.665,0,0,0-1.62-3.007A7.837,7.837,0,0,1,1199.08,21.018Zm-7.43-2.117a7.759,7.759,0,0,0-1.61,2.994,11.7,11.7,0,0,1-2.11-.876A7.76,7.76,0,0,1,1191.65,18.9Zm-3.73,13.069a11.8,11.8,0,0,1,2.12-.878,7.641,7.641,0,0,0,1.61,3A7.845,7.845,0,0,1,1187.92,31.969Zm7.4,2.126a7.652,7.652,0,0,0,1.62-3.01,11.817,11.817,0,0,1,2.14.884A7.818,7.818,0,0,1,1195.32,34.1Z" transform="translate(-1185 -18)"/>
</svg>
