<svg xmlns="http://www.w3.org/2000/svg" width="21" height="21" viewBox="0 0 21 21">
  <defs>
    <style>
      .cls-1 {
        fill: #fd5c08;
        fill-rule: evenodd;
      }
    </style>
  </defs>
  <path id="euro.svg" class="cls-1" d="M1190.77,1363.2a11.482,11.482,0,0,0,2.01,3.44,9.838,9.838,0,0,0,3.07,2.43,8.427,8.427,0,0,0,3.93.92,10.373,10.373,0,0,0,2.49-.32,9.961,9.961,0,0,0,2.4-.93,8.58,8.58,0,0,0,2.01-1.52,5.844,5.844,0,0,0,1.31-2.04l-4.59-2.77a3.763,3.763,0,0,1-.62,1.18,3.586,3.586,0,0,1-.87.79,3.549,3.549,0,0,1-1,.44,4.441,4.441,0,0,1-1.01.13,3.4,3.4,0,0,1-1.75-.45,4.4,4.4,0,0,1-1.3-1.21,5.515,5.515,0,0,1-.81-1.75,7.833,7.833,0,0,1-.27-2.07,8.1,8.1,0,0,1,.23-1.94,5.284,5.284,0,0,1,.74-1.75,3.988,3.988,0,0,1,1.27-1.25,3.293,3.293,0,0,1,1.83-.49,4.694,4.694,0,0,1,1.01.12,3.229,3.229,0,0,1,1.04.41,3.554,3.554,0,0,1,.92.79,3.891,3.891,0,0,1,.67,1.25l4.31-3.09a7.706,7.706,0,0,0-3.03-3.28,9.079,9.079,0,0,0-4.8-1.24,9.371,9.371,0,0,0-4.18.9,10.088,10.088,0,0,0-5.07,5.66A10.778,10.778,0,0,0,1190.77,1363.2Zm-3.77-6.5h13.49v1.94H1187v-1.94Zm0,3.4h13.49v1.94H1187v-1.94Z" transform="translate(-1187 -1349)"/>
</svg>
