<svg width="203.406" height="30" viewBox="0 0 203.406 30">
  <path id="logo.svg" class="cls-1" d="M575.744,31.754a4.161,4.161,0,0,0,2.328-2.286,4.581,4.581,0,0,0,0-3.444,4.175,4.175,0,0,0-.924-1.368,4.261,4.261,0,0,0-1.4-.906,4.862,4.862,0,0,0-3.522,0,4.276,4.276,0,0,0-1.4.906,4.1,4.1,0,0,0-.918,1.368,4.658,4.658,0,0,0,0,3.444,4.166,4.166,0,0,0,.918,1.374,4.227,4.227,0,0,0,1.4.912A4.864,4.864,0,0,0,575.744,31.754Zm-3.354-.366a3.875,3.875,0,0,1-1.26-.828,3.777,3.777,0,0,1-.834-1.248,4.015,4.015,0,0,1-.3-1.56,4.06,4.06,0,0,1,.3-1.566,3.7,3.7,0,0,1,.834-1.248,3.916,3.916,0,0,1,1.266-.822,4.363,4.363,0,0,1,3.18,0,3.933,3.933,0,0,1,1.272.828,3.735,3.735,0,0,1,.84,1.248,4.048,4.048,0,0,1,.3,1.572,3.973,3.973,0,0,1-.312,1.6,3.749,3.749,0,0,1-.852,1.236,3.867,3.867,0,0,1-1.272.8,4.253,4.253,0,0,1-1.572.288A4.122,4.122,0,0,1,572.39,31.388Zm2.526-1a2.736,2.736,0,0,0,.684-0.342,2.54,2.54,0,0,0,.5-0.456,1.727,1.727,0,0,0,.288-0.462L575.6,28.9a1.494,1.494,0,0,1-.66.666,1.906,1.906,0,0,1-.912.246,1.772,1.772,0,0,1-.666-0.138,1.93,1.93,0,0,1-.618-0.4,2.119,2.119,0,0,1-.456-0.654,2.081,2.081,0,0,1-.18-0.882,2.469,2.469,0,0,1,.12-0.75,2.079,2.079,0,0,1,.354-0.672,1.824,1.824,0,0,1,.588-0.48A1.768,1.768,0,0,1,574,25.652a2.3,2.3,0,0,1,.39.036,1.7,1.7,0,0,1,.42.132,1.566,1.566,0,0,1,.4.264,1.3,1.3,0,0,1,.306.432l0.792-.252a2,2,0,0,0-.894-0.99,2.864,2.864,0,0,0-1.41-.342,2.734,2.734,0,0,0-1.212.252,2.591,2.591,0,0,0-.852.648,2.7,2.7,0,0,0-.5.9,3.171,3.171,0,0,0-.168,1.008,2.757,2.757,0,0,0,.234,1.152,2.685,2.685,0,0,0,.624.876,2.827,2.827,0,0,0,.894.558,2.86,2.86,0,0,0,1.056.2A2.564,2.564,0,0,0,574.916,30.392Zm-199.926.381h9.281V52.827h7.954V30.773h9.281V22.989H374.99v7.784Zm68.077-7.784L431.391,53.01l-6.886-10.758a9.108,9.108,0,0,0,1.546-1.148,9.221,9.221,0,0,0,1.611-2.056A10.256,10.256,0,0,0,429.02,33.9a9.709,9.709,0,0,0-.768-3.74,11.02,11.02,0,0,0-2.118-3.285,11.787,11.787,0,0,0-3.217-2.663,9.61,9.61,0,0,0-4.095-1.219H405.483V52.827h7.955V43.746h3l5.877,9.081h17.612l2.219-5.189h8.136l2.26,5.189h8.587L449.444,22.989h-6.377Zm-29.629,7.784h4.932a2.2,2.2,0,0,1,1.649.8,3.244,3.244,0,0,1,.811,2.356,3.931,3.931,0,0,1-.727,2.462,1.924,1.924,0,0,1-1.528.872h-5.137V30.773Zm35.267,10.378h-5.054l2.572-7.817Zm24.607,0.687-6.421-18.849H458.34l11.687,29.837h6.544l11.6-29.837h-8.551Zm24.975-.687h11.932V34.664H498.287V30.773h14.584V22.989H490.333V52.827h22.538V46.34H498.287V41.151ZM524.8,22.989h-7.955V52.827h22.538V46.34H524.8V22.989Zm31.364,0-5.988,12.244-5.873-12.244h-8.843l10.552,20.167v9.67h7.955V43.237l11.04-20.248h-8.843Z" transform="translate(-375 -23)"/>
</svg>
